<svg xmlns="http://www.w3.org/2000/svg" viewBox="0 0 120 24" width="120" height="24">
  <symbol id="researchgate-icon" viewBox="0 0 24 24" width="24" height="24">
    <path fill="#46A7F3" d="M12 0C5.37 0 0 5.37 0 12v12h4V12c0-4.41 3.59-8 8-8s8 3.59 8 8v12h4V12C24 5.37 18.63 0 12 0zm7.75 13.5H12c-1.1 0-2-.9-2-2v-.75c0-1.1.9-2 2-2h7.75c.41 0 .75.34.75.75v3c0 .41-.34.75-.75.75zm-7.75 3H8.5c-1.1 0-2-.9-2-2v-1c0-1.1.9-2 2-2h4.25c1.1 0 2 .9 2 2v1c0 1.1-.9 2-2 2zm0-8H8.5c-1.1 0-2-.9-2-2V4.75c0-.41.34-.75.75-.75h4.25c1.1 0 2 .9 2 2v1.75c0 1.1-.9 2-2 2zm-4.5 4h-2v-2h2v2z"/>
  </symbol>
  <symbol id="google-scholar-icon" viewBox="0 0 24 24" width="24" height="24">
    <path fill="#2E7D32" d="M21.29,8.5l-8-6.5c-0.39-0.3-0.91-0.3-1.3,0l-8,6.5C3.09,8.71,3,8.85,3,9v6c0,0.28,0.22,0.5,0.5,0.5h17 c0.28,0,0.5-0.22,0.5-0.5V9C21,8.85,20.91,8.71,21.29,8.5z M12,5.83L17.17,9H6.83L12,5.83z M3.5,16.5v-5l7.5-6.09l7.5,6.09v5H3.5 z"/>
  </symbol>
  <symbol id="linkedin-icon" viewBox="0 0 24 24" width="24" height="24">
    <path fill="#0077B5" d="M20.25 4h-16.5c-1.24 0-2.25 1-2.25 2.25v16.5c0 1.24 1 2.25 2.25 2.25h16.5c1.24 0 2.25-1 2.25-2.25v-16.5c0-1.24-1-2.25-2.25-2.25zM7.875 19.5h-3.75v-9h3.75v9zM6 8.625c-1.242 0-2.25-1.008-2.25-2.25s1.008-2.25 2.25-2.25 2.25 1.008 2.25 2.25-1.008 2.25-2.25 2.25zM18.75 19.5h-3.75v-5.274c0-0.891-0.018-2.031-1.242-2.031-1.242 0-1.432 0.972-1.432 1.969v5.336h-3.75v-9h3.526v1.047h0.050c0.491-0.929 1.691-1.912 3.477-1.912 3.702 0 4.378 2.439 4.378 5.608v6.257z"/>
  </symbol>
  <symbol id="github-icon" viewBox="0 0 24 24" width="24" height="24">
    <path fill="#181717" d="M12 0.375c-6.626 0-12 5.372-12 12 0 5.303 3.438 9.8 8.205 11.385 0.6 0.113 0.819-0.261 0.819-0.577 0-0.285-0.011-1.039-0.015-2.037-3.338 0.724-4.033-1.609-4.033-1.609-0.546-1.388-1.333-1.757-1.333-1.757-1.089-0.744 0.083-0.729 0.083-0.729 1.205 0.084 1.838 1.235 1.838 1.235 1.070 1.834 2.809 1.305 3.493 0.998 0.108-0.773 0.417-1.305 0.76-1.605-2.665-0.305-5.466-1.332-5.466-5.93 0-1.31 0.469-2.38 1.235-3.22-0.125-0.305-0.536-1.527 0.116-3.181 0 0 1.012-0.322 3.309 1.234 0.959-0.268 1.982-0.402 3-0.406 1.017 0.004 2.041 0.138 3 0.406 2.294-1.556 3.306-1.234 3.306-1.234 0.653 1.654 0.242 2.876 0.118 3.181 0.771 0.84 1.232 1.91 1.232 3.22 0 4.61-2.805 5.621-5.478 5.92 0.43 0.371 0.819 1.104 0.819 2.223 0 1.604-0.014 2.895-0.014 3.287 0 0.318 0.216 0.694 0.825 0.576 4.771-1.586 8.205-6.084 8.205-11.387 0-6.628-5.372-12-12-12z"/>
  </symbol>
  <symbol id="outlook-icon" viewBox="0 0 24 24" width="24" height="24">
    <path fill="#0072C6" d="M20.9,7.3c-0.6-0.2-1.2-0.3-1.9-0.3h-5.6l-0.2-0.8c-0.2-0.6-0.6-0.9-1.1-0.9h-1.6c-0.5,0-0.9,0.3-1.1,0.9l-0.2,0.8H5c-0.7,0-1.3,0.1-1.9,0.3C2.7,7.4,2,8.2,2,9v6c0,0.8,0.7,1.6,1.8,1.7C4.7,16.9,6.1,17,8,17h8c1.9,0,3.3-0.1,4.2-0.3C21.3,16.6,22,15.8,22,15v-6C22,8.2,21.3,7.4,20.9,7.3z M20,9.8c0,0.7-0.6,1.1-1.2,1.3c-0.6,0.2-1.4,0.4-2.9,0.4H8c-1.6,0-2.4-0.2-2.9-0.4C4.6,11,4,10.6,4,9.8V9h16V9.8z M20,15h-6c-1.9,0-2.8,0-3.6-0.1c-0.2,0-0.4,0-0.5-0.2C9.4,14.6,9.2,14.4,9.2,14V10h10V15z"/>
  </symbol>
  
  <use xlink:href="#researchgate-icon" x="4" y="0" />
  <use xlink:href="#google-scholar-icon" x="28" y="0" />
  <use xlink:href="#linkedin-icon" x="52" y="0" />
  <use xlink:href="#github-icon" x="76" y="0" />
  <use xlink:href="#outlook-icon" x="100" y="0" />
</svg>
